<svg id="_01" data-name="01" xmlns="http://www.w3.org/2000/svg" viewBox="0 0 32 32"><defs><style>.cls-1{fill:#fff;}.cls-2{fill:#d4a017;}</style></defs><path class="cls-1" d="M32,18.85v1.47a.9.9,0,0,1-.83.9l-2.12.18a.9.9,0,0,0-.8.7l0,.2a12.71,12.71,0,0,1-1.66,4l-.11.17a1,1,0,0,0-.13.32l0-.06v-1l-1.13-.84-1,.16L24.2,25h0l.09-.15h0l.09-.14.06-.11,0-.05.09-.16h0a1.09,1.09,0,0,1,.08-.15c0-.05.05-.1.08-.16s.05-.1.08-.16a1.11,1.11,0,0,0,.07-.16l.06-.12a1.86,1.86,0,0,0,.1-.25.61.61,0,0,0,0-.12l.07-.16h0l.05-.15a1.72,1.72,0,0,0,.07-.21l.05-.14a0,0,0,0,1,0,0l0-.1v0a.06.06,0,0,1,0,0h0l0-.1,0-.12a1.24,1.24,0,0,0,0-.16.94.94,0,0,0,0-.16,1.94,1.94,0,0,1,0-.2l0-.15c0-.05,0-.13,0-.2l0-.18,0-.18c0-.06,0-.1,0-.16v0a.88.88,0,0,1,0-.17c0-.13,0-.25,0-.37a1.15,1.15,0,0,1,0-.19h0v-.38c0-.23,0-.45,0-.68a.66.66,0,0,0,0-.14,9,9,0,0,0-.24-1.47l0-.12c0-.07,0-.13-.05-.19s0-.06,0-.09a.64.64,0,0,1,0-.07l-.09-.28,0-.1c-.06-.17-.12-.34-.19-.51L25,15.73l-.05-.12-.08-.16s0-.1-.07-.16-.2-.38-.3-.57l-.09-.14s-.05-.08-.07-.13l-.05-.07a10.25,10.25,0,0,0-.83-1.13.6.6,0,0,1-.08-.08,1.25,1.25,0,0,0-.16-.17l-.11-.13,0,0-.11-.11-.06-.06-.17-.16-.12-.12-.08-.07-.14-.12L22.17,12,22,11.89l-.38-.28-.09-.07c-.24-.16-.48-.32-.74-.46a1.29,1.29,0,0,0-.16-.09l-.2-.11-.53-.25-.22-.1-.11,0-.11,0L19,10.29l-.12,0-.22-.07-.48-.12-.1,0L17.86,10l-.18,0-.13,0-.12,0-.18,0-.43,0-.24,0H15.42l-.24,0h-.3l-.13,0h-.3l-.13,0-.23.05-.24,0-.1,0-.23.06-.19.05-.05,0-.23.06-.11,0-.45.16-.11,0-.11,0-.22.1c-.17.08-.35.16-.52.26l-.21.11-.15.08c-.26.15-.51.31-.75.47l-.09.07c-.13.09-.26.18-.38.28L9.77,12l-.18.16-.13.12-.08.07-.12.12a1.37,1.37,0,0,0-.17.17L9,12.71l-.11.11,0,0L8.77,13l-.16.17-.08.09a10.14,10.14,0,0,0-.83,1.12l0,.08-.07.12-.09.15c-.1.18-.21.37-.3.56l-.08.17c0,.05-.05.1-.07.16l0,.11-.09.21c-.07.17-.13.34-.19.52l0,.09-.09.29a.14.14,0,0,1,0,.06s0,.06,0,.09l0,.14v.05l0,.12a9.19,9.19,0,0,0-.24,1.47.61.61,0,0,1,0,.14c0,.05,0,.13,0,.19s0,.32,0,.49V20h0a1.09,1.09,0,0,0,0,.18,2.31,2.31,0,0,0,0,.37c0,.06,0,.11,0,.17v0a.88.88,0,0,0,0,.16l0,.19,0,.12L6,21.11l0,0h0l-.16.1-1,.65-.89.56,0-.16,0-.2a.9.9,0,0,0-.08-.21.86.86,0,0,0-.72-.48L.83,21.22a.9.9,0,0,1-.83-.9V18.85A.9.9,0,0,1,.83,18l2.11-.18a.89.89,0,0,0,.8-.7l0-.2a12.26,12.26,0,0,1,1.66-4l.1-.17a.89.89,0,0,0,.07-.85,1.28,1.28,0,0,0-.14-.21L4.11,10a.92.92,0,0,1,0-1.23l1-1a.91.91,0,0,1,1.23-.06L8.05,9.07a.9.9,0,0,0,1.06.07L9.27,9a12.22,12.22,0,0,1,4-1.66l.19,0a.89.89,0,0,0,.7-.8l.18-2.12a1.14,1.14,0,0,1,.06-.25.93.93,0,0,1,.84-.58h1.47a.9.9,0,0,1,.85.58,1.14,1.14,0,0,1,.06.25l.17,2.11a.88.88,0,0,0,.7.8l.2,0a12.48,12.48,0,0,1,4,1.66l.17.11A.9.9,0,0,0,24,9.07l1.62-1.38a.91.91,0,0,1,1.22,0l1,1A.9.9,0,0,1,27.88,10l-1.36,1.62a.87.87,0,0,0-.07,1.06l.1.17a12.5,12.5,0,0,1,1.67,4l0,.2a.91.91,0,0,0,.8.7l2.11.17A.91.91,0,0,1,32,18.85Z"/><path class="cls-2" d="M7.46,26.46H8.69c-.08,1-1,1.34-2.09,1.34a3.63,3.63,0,0,1-1.18-.17A1.29,1.29,0,0,1,4.5,26.3v-.22a1.35,1.35,0,0,1,.3-.91,2.24,2.24,0,0,1,1.8-.59,3.87,3.87,0,0,1,1.07.13h0a1.3,1.3,0,0,1,1,1.21H7.46c-.12-.3-.46-.37-.87-.37s-.9.09-.89.6v.07c0,.5.41.6.89.6S7.35,26.75,7.46,26.46Z"/><rect class="cls-2" x="17.45" y="26.83" width="1.2" height="0.9"/><polygon class="cls-2" points="10.24 25.44 10.24 25.83 12.63 25.83 12.63 26.54 10.24 26.54 10.24 26.94 12.63 26.94 12.63 27.73 9.04 27.73 9.04 24.66 12.63 24.66 12.63 25.44 10.24 25.44"/><path class="cls-2" d="M15.08,26h2.08V27.8h-.6l-.06-.48a2,2,0,0,1-1.42.48c-1.15,0-2.1-.34-2.09-1.5v-.22c0-1.17.94-1.5,2.09-1.5s2,.29,2.09,1.23H15.89a.58.58,0,0,0-.32-.21,2.61,2.61,0,0,0-.48-.05c-.49,0-.91.1-.9.6v.08c0,.5.41.59.9.59s.77,0,1-.26h-1Z"/><path class="cls-1" d="M27.78,28l-.58-.15-.57-.57-.3-.53,0-.06v-1l-1.12-.84-1,.16.06-.09h0l.1-.14h0a1.19,1.19,0,0,1,.09-.15l.06-.11,0,0,.08-.16h0a1.09,1.09,0,0,0,.08-.15c0-.06.06-.11.08-.16a1.3,1.3,0,0,0,.08-.17.8.8,0,0,0,.08-.16,1,1,0,0,0,.05-.12,2.56,2.56,0,0,0,.11-.24s0-.09.05-.13a1.66,1.66,0,0,1,.06-.16h0l.06-.15a1.72,1.72,0,0,1,.07-.21s0-.09,0-.14a0,0,0,0,0,0,0l0-.1v0s0,0,0,0h0a.3.3,0,0,0,0-.1l0-.12c0-.05,0-.11,0-.16s0-.1,0-.16,0-.13,0-.19a1.31,1.31,0,0,0,0-.15l0-.2,0-.18a1.11,1.11,0,0,0,0-.19.88.88,0,0,0,0-.16v0a1.11,1.11,0,0,1,0-.17l0-.37a1.09,1.09,0,0,1,0-.18h0v-.37a5.08,5.08,0,0,0,0-.68.76.76,0,0,0,0-.15,10.45,10.45,0,0,0-.23-1.47l0-.12a1.33,1.33,0,0,1,0-.19l0-.08a.64.64,0,0,0,0-.07l-.09-.29a.32.32,0,0,0,0-.09c-.06-.17-.12-.35-.19-.52L25,15.72a.54.54,0,0,0,0-.11.71.71,0,0,0-.07-.16l-.08-.16a5.12,5.12,0,0,0-.3-.57l-.08-.14-.08-.13,0-.08a10.14,10.14,0,0,0-.83-1.12l-.07-.09L23.2,13l-.12-.12,0,0-.11-.1-.05-.06-.18-.17-.12-.12-.08-.07-.13-.12a1.22,1.22,0,0,1-.18-.16L22,11.88l-.37-.28-.1-.07c-.24-.16-.48-.32-.74-.46L20.65,11l-.21-.11-.53-.25-.21-.09-.11,0-.11,0L19,10.28l-.11,0-.23-.07-.48-.13-.09,0-.25,0-.19,0-.13,0-.12,0-.18,0-.43,0-.24,0H15.42l-.24,0h-.3l-.18,0h-.12l-.12,0-.12,0-.23,0L14,10l-.35.08-.12,0-.19.05h0l-.22.07-.12,0-.12,0-.21.08-.11,0-.12,0-.1,0-.24.11-.1.05-.32.15-.11.06-.2.11a6.5,6.5,0,0,0-.63.37l-.17.11-.57.41L9.78,12a9.36,9.36,0,0,0-1.33,1.34,1,1,0,0,0-.13.16l-.14.18-.07.09L8,13.88l-.2.3-.06.08c-.13.2-.25.4-.36.61L7.36,15l-.05.1-.06.1a.54.54,0,0,1,0,.11l-.15.32,0,.1c-.07.15-.13.31-.19.46l0,.09a.56.56,0,0,0,0,.12l0,.07,0,.1a.14.14,0,0,1,0,.06v.06l0,0,0,.1v.08s0,0,0,.06,0,0,0,.05a.68.68,0,0,0,0,.12h0l0,.06,0,.11a10.61,10.61,0,0,0-.24,1.48.71.71,0,0,1,0,.14c0,.05,0,.12,0,.19s0,.32,0,.49V20h0a1.09,1.09,0,0,0,0,.18c0,.13,0,.25,0,.37a.88.88,0,0,0,0,.17v0a1,1,0,0,0,0,.16,1.24,1.24,0,0,0,0,.18l0,.13h0L6,21.11l0,0h0l-.16.1-1,.65-.89.56-.19.11v5.86H28.36ZM6.6,26.82c.41,0,.75-.07.87-.37H8.69c-.08,1-1,1.35-2.09,1.35a3.38,3.38,0,0,1-1.18-.18A1.29,1.29,0,0,1,4.5,26.3v-.22a1.38,1.38,0,0,1,.3-.92,2.27,2.27,0,0,1,1.8-.58,3.87,3.87,0,0,1,1.07.13h0a1.3,1.3,0,0,1,1,1.21H7.46c-.12-.3-.46-.37-.87-.37s-.9.09-.89.6v.07C5.69,26.73,6.11,26.82,6.6,26.82Zm6-1.38h-2.4v.39h2.4v.71h-2.4v.38l0,0h2.38v.79H9V24.66h3.6Zm2.45,1.38c.48,0,.78,0,1-.26h-1V26h2.09V27.8h-.6l-.06-.48a2,2,0,0,1-1.42.48c-1.16,0-2.1-.34-2.1-1.5v-.22c0-1.17.94-1.5,2.1-1.5s1.94.29,2.08,1.23H15.89a.58.58,0,0,0-.32-.21,2.61,2.61,0,0,0-.48-.05c-.49,0-.91.1-.9.6v.08c0,.5.4.59.89.59Zm-1.7-7.72c.25,0,.46,0,.68,0a.54.54,0,0,1,.42.24,1.8,1.8,0,0,1,.21.63,1.72,1.72,0,0,1,0,.6l-.33-.21-.6-.39-.31-.2a.2.2,0,0,1-.11-.2C13.4,19.42,13.39,19.27,13.39,19.1Zm5.26,8.62h-1.2v-.89h1.2Zm5.43-3.45-.08.15-.08.11,0,0-.1.15h0l-.1.15-.13.18a.18.18,0,0,1-.05.07h0l-2.21-.94-.86,1.13-.15.58-.16.11,0-1.08.23-.59-1.42-1-1.37.53-.65-.23-.59-.15,0-.59-.4-.16-.12-.38-.14-.05s-.72-.13-.77-.12a5.67,5.67,0,0,1-.61-.59c-.06-.07-.09,0-.09,0h-.08v0h0l0,0v-.16h.67a.36.36,0,0,0,.33-.35v-.23c0-.24,0-.46-.06-.7a.38.38,0,0,0,0-.1A1.86,1.86,0,0,0,14.6,19a.11.11,0,0,1,0-.11,3.73,3.73,0,0,1,1.45-2l3.63-2.38.28-.18v.16c-.13,1.53-.26,3.06-.38,4.59a.48.48,0,0,1-.3.49.43.43,0,0,1-.25,0l-.1,0H19c.22-.56.22-.62-.07-1.09l-.06-.09s-.05,0-.06,0-.34.06-.44.17a6.72,6.72,0,0,0-.48.67,2.1,2.1,0,0,1-.42-.22l.23-.07a.34.34,0,0,0,.18-.44v0a.39.39,0,0,1-.06-.39,1.1,1.1,0,0,0,0-.18l-.23.12a.43.43,0,0,0,0-.25c-.09-.1-.27-.08-.43,0a.06.06,0,0,0,0,.08l0,0,.3.22-.05,0a.16.16,0,0,0-.14.18l0,0c0,.2.09.39.14.6a1.42,1.42,0,0,1-.35-.38L17,18.4c.15-.23.16-.4,0-.48s-.23-.06-.42.19L16.55,18a2.09,2.09,0,0,0-.16-.29.11.11,0,0,0-.11,0s0,.07-.05.11a.19.19,0,0,0,0,.08c.15.79.29,1.58.44,2.36a1,1,0,0,0,.76.8,1.51,1.51,0,0,0,1.22-.21c.4-.25.78-.53,1.17-.8a.4.4,0,0,0,.15-.51.24.24,0,0,1,0-.12.58.58,0,0,1,.28-.48,2.69,2.69,0,0,0,.33-.26c.12-.08.14-.16,0-.26a.37.37,0,0,1-.07-.4c.15-.51.29-1,.47-1.52s.26-1,.39-1.45a.54.54,0,0,1,.1-.16l0,0v-.1l-.09-1.69a.13.13,0,0,0,0-.06c-.14-.3-.28-.6-.43-.9a.21.21,0,0,0-.11-.08s-.07.05-.09.09-.14.32-.22.48a.29.29,0,0,1-.13.14l-1.65.85-.11,0-.21,0-2,1a.19.19,0,0,1-.15,0,.27.27,0,0,0-.32.08l-.47.51c-.34.35-.66.72-1,1a2.24,2.24,0,0,0-.66,1.09c0,.16-.08.3-.11.45l-.21.83h-.85c-.46,0-.52.06-.52.52V20h-.52a.07.07,0,0,1-.07,0,.41.41,0,0,0-.45-.25c-.07-.27-.12-.32-.3-.32-.12.15.11.19.09.32H9.2c-.15,0-.2.05-.21.2V20H8.81a.55.55,0,0,0-.5.48V21a.43.43,0,0,0,.06.22l0,0,0,.05.05,0,0,0h1v.19l-.21,0,0,0a2.2,2.2,0,0,0-.26.27,3.12,3.12,0,0,1-.63-.07l-.25.3-.59,0,0,.06h0L7,21.88H7l-.12-.21h0v0l0-.15s0-.07,0-.11a.24.24,0,0,0,0-.09l0-.17a1.11,1.11,0,0,1,0-.17l0-.19,0-.19h0a1,1,0,0,0,0-.16v-.06a.57.57,0,0,0,0-.12.16.16,0,0,1,0-.07V19.6c0-.32,0-.64,0-1a.2.2,0,0,1,0-.11,1.1,1.1,0,0,1,0-.18c0-.06,0-.1,0-.16v-.05a.68.68,0,0,1,0-.14l0-.15v0a.5.5,0,0,1,0-.12l0-.11a1.89,1.89,0,0,1,0-.23l0-.11a.45.45,0,0,1,0-.11s0-.07,0-.11a.49.49,0,0,0,0-.11,1.42,1.42,0,0,1,0-.16c0-.05,0-.11,0-.16a1.31,1.31,0,0,0,.05-.15l0,0a.88.88,0,0,1,0-.15l0-.1L7.43,16s0-.07,0-.11a.54.54,0,0,0,0-.11l.07-.15a1,1,0,0,0,.07-.15.45.45,0,0,0,0-.1.41.41,0,0,0,0-.09l.06-.11s0-.07,0-.1l.06-.1L8,14.81l0,0,.1-.16s.07-.11.11-.16l.11-.16.06-.09.07-.09.1-.13a1.34,1.34,0,0,1,.11-.14l.11-.15.08-.09a2.09,2.09,0,0,1,.2-.22l.05-.07L9.44,13l.11-.11.35-.32.11-.09a2.65,2.65,0,0,1,.26-.21l.1-.09h0l0,0,0,0,.14-.1.41-.28.06,0,.1,0,.34-.2.13-.07.14-.07.26-.13.65-.28.11,0c.25-.09.52-.18.79-.25l.08,0h0l.08,0,.42-.1.11,0a9.68,9.68,0,0,1,1.51-.16h.48a9.78,9.78,0,0,1,1.43.16l.11,0,.42.09.08,0h0l.09,0c.27.07.53.16.79.24l.1,0,.65.28.26.13.14.07.13.07a3.79,3.79,0,0,1,.34.2l.1.06.06,0,.41.28.14.1,0,0,0,0,0,0,.11.08.25.21.12.09c.12.11.23.21.34.33l.11.1c.11.11.21.21.31.33l.06.06.19.22.08.09.12.15.1.14.1.14.07.08.06.1a.91.91,0,0,1,.11.16l.11.16.1.16,0,0,.08.13.06.1,0,.1.06.11,0,.09.05.1s.05.1.07.15l.07.15a1.17,1.17,0,0,0,.05.11l.05.11.08.21,0,.1a1.56,1.56,0,0,0,.06.15,0,0,0,0,0,0,0,.88.88,0,0,0,.05.15,1,1,0,0,0,.05.16,1,1,0,0,1,.05.16A.84.84,0,0,1,25,17l0,.1,0,.11a.52.52,0,0,1,0,.11l.06.23,0,.11a.5.5,0,0,1,0,.12v0l0,.15a.59.59,0,0,0,0,.14v.05c0,.05,0,.11,0,.16l0,.18s0,.07,0,.11c0,.32.05.64.05,1v.62a.57.57,0,0,1,0,.12c0,.05,0,0,0,.06a.88.88,0,0,1,0,.16h0a1.11,1.11,0,0,1,0,.19c0,.06,0,.13,0,.19l0,.17,0,.17a.29.29,0,0,1,0,.09s0,.08,0,.12a.89.89,0,0,1,0,.14.64.64,0,0,1,0,.09l0,.11s0,0,0,.05,0,.11,0,.16-.07.23-.1.35h0l-.06.17h0a.88.88,0,0,1-.05.15v0a.78.78,0,0,0-.05.14.54.54,0,0,0-.05.11l0,.13-.05.11a1,1,0,0,1-.07.16,0,0,0,0,1,0,0l-.15.31a1.14,1.14,0,0,1-.1.19l-.07.14a1.09,1.09,0,0,1-.08.15ZM21,15.09l.06-.13.06,0s0,.08,0,.12a9.77,9.77,0,0,0-.32,1.4A11.34,11.34,0,0,1,20.44,18a.19.19,0,0,1,0,.07h-.06a.55.55,0,0,1,0-.22C20.55,16.94,20.78,16,21,15.09Zm-.35-1.53a.24.24,0,0,1,.23-.24.23.23,0,0,1,.23.23h0a.25.25,0,0,1-.23.24.23.23,0,0,1-.23-.23Zm-.16,5-.39.31c.06-.23.1-.42.15-.64ZM20,13.49C19,14,17.89,14.6,16.82,15.16l-.2.1-.07-.2,1-.51L18.66,14a.8.8,0,0,0,.13-.13.17.17,0,0,1,.06-.06L20.44,13a.66.66,0,0,1-.39.48Zm-1,6.23v0l-2.12-.55a.4.4,0,0,1-.3-.32c0-.16-.06-.3-.1-.48.16.09.32.12.4.28l.06.08a1,1,0,0,0,.57.45c.46.14.9.31,1.35.47Z"/></svg>