<svg id="_01" data-name=" 01" xmlns="http://www.w3.org/2000/svg" viewBox="0 0 32 32"><defs><style>.cls-1{fill:#fff;}.cls-2{fill:#d4a017;}</style></defs><path id="Engrane" class="cls-1" d="M32,18.81v1.48a.91.91,0,0,1-.83.9l-2.12.17a1,1,0,0,0-.8.71l-.05.19a12,12,0,0,1-.72,2.24,11.27,11.27,0,0,1-.94,1.78l-.11.18a.64.64,0,0,0-.13.32l-2.84-1.45.05-.22,0-.07s0,0,0,0,.08-.1.11-.16l.09-.14h0l.1-.15a0,0,0,0,1,0,0l.07-.11a1.09,1.09,0,0,0,.08-.15h0a.55.55,0,0,0,.08-.15c0-.05.05-.08.07-.13l.09-.19.15-.31s0,0,0,0a1.26,1.26,0,0,0,.07-.16l0-.11a.69.69,0,0,0,.05-.13s0-.08.05-.11l.05-.15s0,0,0,0l.05-.15h0c0-.06,0-.11.05-.18h0c0-.11.06-.22.1-.35a1,1,0,0,1,0-.16.09.09,0,0,1,0-.05.45.45,0,0,0,0-.11s0-.05,0-.08a.89.89,0,0,0,0-.14s0-.08,0-.12,0-.06,0-.09l0-.18a1.35,1.35,0,0,1,0-.18,1.25,1.25,0,0,1,0-.19c0-.06,0-.13,0-.19v0s0-.11,0-.16v-.06a.3.3,0,0,1,0-.13V19.6c0-.32,0-.64-.05-1a.22.22,0,0,0,0-.11c0-.06,0-.11,0-.17s0-.12,0-.17v0c0-.05,0-.1,0-.15a.37.37,0,0,0,0-.14v0s0-.08,0-.11a.45.45,0,0,0,0-.11,1.89,1.89,0,0,1-.05-.23.45.45,0,0,1,0-.11s0-.08,0-.11a.7.7,0,0,0,0-.12.45.45,0,0,1,0-.11c0-.05,0-.11-.05-.16s0-.11-.05-.16l-.05-.14a.06.06,0,0,0,0,0l-.05-.14a1.17,1.17,0,0,1-.05-.11L24.55,16l-.05-.11s0-.08,0-.12-.05-.09-.07-.14l-.08-.15,0-.09,0-.1-.07-.11,0-.1,0-.09a1.09,1.09,0,0,1-.08-.15s0,0,0,0a.86.86,0,0,0-.1-.16.76.76,0,0,0-.11-.16l-.11-.16a.53.53,0,0,1-.06-.1l-.07-.08L23.42,14a.5.5,0,0,0-.12-.13l-.11-.15-.08-.09-.19-.23s0-.05-.07-.06-.2-.21-.3-.32l-.11-.12c-.11-.11-.23-.2-.35-.32L22,12.47l-.25-.21a.38.38,0,0,0-.11-.08l0,0s0,0-.05,0,0,0-.05,0l-.12-.1L21,11.73a.08.08,0,0,0-.07,0l-.09-.07-.34-.19-.13-.07s-.09,0-.14-.08l-.26-.12a6.36,6.36,0,0,0-.65-.28l-.1,0c-.26-.1-.53-.18-.78-.26h-.1l-.08,0-.42-.1h-.11a8.34,8.34,0,0,0-1.42-.15h-.47a10.59,10.59,0,0,0-1.5.16l-.12,0-.41.1h-.1l-.08,0a5.1,5.1,0,0,0-.78.26l-.1,0c-.22.08-.45.17-.66.27a1.49,1.49,0,0,0-.25.13l-.15.08-.12.06-.34.2-.1.06a.06.06,0,0,1-.06,0c-.15.08-.27.18-.42.28l-.13.09s0,0,0,0l0,0h0a.31.31,0,0,1-.11.08l-.26.21-.11.1-.35.32L9.42,13l-.31.32a.19.19,0,0,1-.06.07c-.07.08-.13.14-.19.22s0,.07-.08.1l-.12.14a.35.35,0,0,1-.11.13l-.09.15-.07.08s-.05.06-.06.09l-.11.16s-.08.12-.12.16L8,14.8s0,0,0,0L7.91,15l0,.1,0,.09-.07.12,0,.09,0,.1s0,.1-.08.14l-.07.15a.54.54,0,0,1,0,.11s0,.07,0,.11a.69.69,0,0,0-.08.21.33.33,0,0,0,0,.12l0,.14s0,0,0,0l0,.15a.75.75,0,0,0,0,.16c0,.05,0,.11,0,.16a.45.45,0,0,0,0,.11.66.66,0,0,0,0,.11.45.45,0,0,1,0,.11.42.42,0,0,1,0,.12l0,.22a.23.23,0,0,1,0,.11s0,.09,0,.12h0a.8.8,0,0,1,0,.15.66.66,0,0,0,0,.14v.05c0,.05,0,.11,0,.16s0,.11,0,.18,0,.06,0,.11c0,.32,0,.64,0,1v.61a.3.3,0,0,0,0,.13v.07s0,.11,0,.16h0c0,.07,0,.13,0,.2a.63.63,0,0,0,0,.19,1.35,1.35,0,0,0,0,.18l0,.14v0s0,.07,0,.1,0,.08,0,.11a.8.8,0,0,1,0,.15v0l-3,1-.06-.27a.8.8,0,0,1,0-.15l0-.19a1.31,1.31,0,0,0-.08-.21A.88.88,0,0,0,3,21.46L.83,21.28a.9.9,0,0,1-.83-.9V18.91A.9.9,0,0,1,.83,18L3,17.83a.92.92,0,0,0,.8-.71l0-.19a12.17,12.17,0,0,1,1.66-4l.11-.18a.89.89,0,0,0,.07-.85.74.74,0,0,0-.13-.21L4.15,10.06a.91.91,0,0,1,0-1.22l1-1a.88.88,0,0,1,1.21,0L8.07,9.11a.86.86,0,0,0,1.06.06l.18-.11a12.36,12.36,0,0,1,4-1.67l.19,0a.9.9,0,0,0,.71-.8l.17-2.12a.55.55,0,0,1,.07-.24.9.9,0,0,1,.85-.58h1.47a.92.92,0,0,1,.85.58.69.69,0,0,1,.05.24l.17,2.12a.88.88,0,0,0,.71.8l.19,0a12.45,12.45,0,0,1,4,1.67l.18.11A.92.92,0,0,0,24,9.11l1.61-1.37a.9.9,0,0,1,1.22,0l1,1a.9.9,0,0,1,0,1.22l-1.36,1.62a.87.87,0,0,0-.07,1.06l.12.18a12.61,12.61,0,0,1,1.66,4l.05.19a.9.9,0,0,0,.8.71l2.12.18A.75.75,0,0,1,32,18.81Z"/><path id="Excav" class="cls-1" d="M27.79,28l-.58-.14-.58-.58-.3-.53,0-.07v-1l-1.12-.83-1,.16-.61.08h0l-2.21-.93-.86,1.12-.15.58-.16.11,0-1.08.23-.59-1.43-1-1.38.53-.64-.24-.59-.14,0-.58-.4-.16-.12-.39-.15-.06a7.5,7.5,0,0,0-.77-.11,7.56,7.56,0,0,1-.61-.6c-.06-.06-.09,0-.09,0h-.08v0h0l0,0v-.16h.67a.36.36,0,0,0,.32-.35V20.8c0-.22,0-.46-.05-.69A.28.28,0,0,0,15,20a2,2,0,0,0-.4-1.1s0-.08,0-.11a3.73,3.73,0,0,1,1.46-2q1.83-1.18,3.63-2.4l.29-.17v.16c-.13,1.52-.27,3.07-.38,4.59,0,.23-.07.39-.31.47a.31.31,0,0,1-.25,0l-.1,0-.08,0,.13-.08.08,0,0,0,.1-.48-.08-.18L19,18.26l-.38-.11-.37.26-.13.26-.08.14,0,.07.09.28-.32-.11a2.27,2.27,0,0,1-.41-.21l.08,0,.11,0,.11-.46,0-.05.31-.37-.29-.24-.22.13.09-.08-.08-.21-.08-.11-.14-.09-.18.13,0,.28.23.14-.05,0,0,.05,0,.05-.08.11v.1l.06.16,0,.34v.11a1.34,1.34,0,0,1-.32-.35L17,18.36l.11-.13,0-.19v-.21l-.18-.1-.19.1-.15.16,0,.08h0s0-.05-.05-.06-.1-.21-.16-.29a.14.14,0,0,0-.11,0s0,.07-.05.12a.11.11,0,0,0,0,.08l.43,2.36a1,1,0,0,0,.75.82,1.54,1.54,0,0,0,1.22-.21c.4-.26.78-.53,1.17-.81a.4.4,0,0,0,.14-.51.21.21,0,0,1,0-.11.6.6,0,0,1,.27-.48c.12-.07.23-.18.34-.26s.14-.16.05-.27a.4.4,0,0,1-.07-.41c.15-.51.29-1,.47-1.52a12.38,12.38,0,0,0,.38-1.45.52.52,0,0,1,.12-.17h0V14.8l-.1-1.69a.23.23,0,0,0,0-.07c-.15-.3-.29-.61-.44-.89a.13.13,0,0,0-.11-.09s-.06,0-.08.09-.14.32-.22.48a.44.44,0,0,1-.13.14c-.55.29-1.11.56-1.65.85a.23.23,0,0,1-.11,0c-.07,0-.16,0-.21,0l-2,1s-.11,0-.14,0a.26.26,0,0,0-.32.08c-.16.18-.32.34-.46.52-.34.35-.66.72-1,1.06A2.09,2.09,0,0,0,14,17.43c0,.14-.08.3-.11.45s-.15.56-.21.83c0,0,0,0-.05,0h-.8c-.46,0-.51.06-.51.51V20h-.53s-.06,0-.06,0a.4.4,0,0,0-.45-.26c-.08-.27-.13-.32-.31-.32s.11.19.08.32H9.23c-.15,0-.21.05-.21.19V20h-.2a.55.55,0,0,0-.49.48V21a.33.33,0,0,0,.06.22s0,0,0,0l.05,0s0,0,0,0a.06.06,0,0,0,0,0h0l.07,0h.89v.17l-.2,0-.05,0a2.85,2.85,0,0,0-.26.28,3.1,3.1,0,0,1-.62-.07l-.26.29-.59,0,0,.07h0l-.45-.31h0l-.12-.21h0l-.56-.48L6,21.06l0,0,0,0-.16.09-1,.66-.9.56-.17.12V28.4H28.36Zm-8.73-8.32-2.12-.55a.4.4,0,0,1-.3-.32c0-.16-.06-.3-.1-.48.16.08.32.11.4.27s0,.07.07.08a.94.94,0,0,0,.58.45l1.34.47a.94.94,0,0,1,.15.06A0,0,0,0,0,19.06,19.71Zm1.06-.88c0-.23.09-.42.14-.65.08.13.16.23.24.34Zm.76-5.54a.24.24,0,0,1,.25.22.25.25,0,0,1-.25.24.23.23,0,0,1-.22-.24A.24.24,0,0,1,20.88,13.29ZM21,15.05c0-.05,0-.08.07-.13l.05,0c0,.05,0,.08,0,.13a11.33,11.33,0,0,0-.32,1.4A13.16,13.16,0,0,1,20.45,18s0,0,0,.08h-.06a.46.46,0,0,1,0-.23C20.56,16.92,20.79,16,21,15.05Zm-3.42-.53c.36-.17.73-.35,1.08-.54l.13-.13s0,0,.07-.07L20.45,13a.63.63,0,0,1-.38.49c-1.07.54-2.15,1.1-3.22,1.67a.72.72,0,0,0-.19.11,1.31,1.31,0,0,1-.08-.21C16.91,14.86,17.23,14.68,17.59,14.52Zm-4.17,4.55c.24,0,.47,0,.67,0a.51.51,0,0,1,.42.24,1.91,1.91,0,0,1,.21.63,2.3,2.3,0,0,1,0,.61l-.34-.21L13.82,20l-.3-.19a.22.22,0,0,1-.11-.21C13.42,19.39,13.42,19.24,13.42,19.07Z"/><g id="ceg."><path class="cls-2" d="M7.48,26.42H8.7c-.08,1-1,1.35-2.09,1.35a3.37,3.37,0,0,1-1.18-.17,1.31,1.31,0,0,1-.91-1.34V26a1.48,1.48,0,0,1,.28-.92,2.35,2.35,0,0,1,1.8-.57,3.91,3.91,0,0,1,1.06.12h0a1.31,1.31,0,0,1,1,1.21H7.46c-.11-.31-.45-.37-.86-.37s-.9.1-.9.59v.08c0,.5.42.6.9.6S7.38,26.73,7.48,26.42Z"/><rect class="cls-2" x="17.46" y="26.81" width="1.2" height="0.9"/><polygon class="cls-2" points="10.27 25.43 10.27 25.81 12.65 25.81 12.65 26.52 10.27 26.52 10.27 26.92 12.65 26.92 12.65 27.71 9.06 27.71 9.06 24.64 12.65 24.64 12.65 25.43 10.27 25.43"/><path class="cls-2" d="M15.1,26h2.09v1.77h-.6l-.06-.48a2,2,0,0,1-1.43.48c-1.15,0-2.1-.34-2.1-1.51v-.23c0-1.17.95-1.49,2.1-1.49s1.94.29,2.09,1.24H15.92a.55.55,0,0,0-.32-.21,2.28,2.28,0,0,0-.48-.05c-.5,0-.9.1-.9.6v.08c0,.49.42.59.9.59s.77,0,1-.26h-1V26Z"/></g></svg>