<svg id="CEG_lgo" data-name="CEG lgo" xmlns="http://www.w3.org/2000/svg" viewBox="0 0 500 500" width="500" height="500"><defs><style>.cls-1{fill:#fff;}.cls-2{fill:#d4a017;}</style></defs><g id="logo"><path id="Engrane" class="cls-1" d="M500,294.47v23a14.25,14.25,0,0,1-12.95,14.09l-33,2.79a14,14,0,0,0-12.48,10.9l-.68,3.09a193.74,193.74,0,0,1-26,62.66l-1.69,2.67a13.79,13.79,0,0,0-2,4.93L366.84,396l.71-3.45c.25-.32.48-.65.72-1s.25-.35.37-.51c.58-.8,1.14-1.61,1.68-2.41l1.49-2.21v-.07c0-.07,0-.06.07-.09.5-.77,1-1.57,1.51-2.38q.18-.3.39-.6c.37-.6.74-1.21,1.1-1.83s.89-1.5,1.33-2.27a2,2,0,0,0,.18-.32c.49-.77.93-1.58,1.34-2.35s.74-1.37,1.1-2.08c.54-1,1-2,1.55-3,.8-1.61,1.57-3.24,2.31-4.87a2,2,0,0,0,.21-.47c.36-.81.74-1.61,1.08-2.44.26-.59.49-1.19.73-1.78s.54-1.28.77-1.91.49-1.22.72-1.82.53-1.42.81-2.15c.08-.21.15-.42.23-.67.26-.76.54-1.53.8-2.34,0,0,0-.09.06-.12.29-.91.59-1.81.86-2.73,0-.07,0-.09.07-.12.56-1.81,1.09-3.63,1.56-5.47.25-.86.48-1.71.69-2.59.06-.23.13-.47.18-.7.15-.6.29-1.19.42-1.79.12-.44.2-.85.29-1.31.18-.73.36-1.51.51-2.28.11-.57.23-1.17.32-1.76s.22-1,.3-1.45l.44-2.67c.16-.9.31-1.79.42-2.68s.26-2,.39-2.94.23-2,.36-2.92v-.17c.08-.8.13-1.64.23-2.43a4.49,4.49,0,0,1,.06-.9c.07-.65.09-1.3.15-1.95,0-.36,0-.72,0-1.08,0-.63.1-1.25.1-1.9a3.25,3.25,0,0,1,.06-.77V309.4c0-.94.07-2,.07-3.06,0-5-.28-10.08-.77-15-.06-.59-.13-1.14-.21-1.71-.1-.93-.21-1.84-.33-2.77s-.24-1.63-.36-2.43a4.25,4.25,0,0,0-.11-.75c-.1-.74-.21-1.48-.36-2.26s-.27-1.55-.42-2.31a2.33,2.33,0,0,0-.08-.36c-.1-.59-.21-1.19-.33-1.78s-.27-1.19-.39-1.79c-.24-1.19-.54-2.34-.8-3.53-.16-.56-.29-1.16-.45-1.75s-.3-1.17-.48-1.73-.26-1.1-.44-1.64-.35-1.24-.53-1.84c-.25-.85-.51-1.71-.77-2.58s-.57-1.69-.86-2.55-.54-1.55-.8-2.33a2.9,2.9,0,0,0-.16-.41c-.26-.78-.56-1.54-.85-2.31-.21-.57-.43-1.11-.64-1.63-.44-1.11-.89-2.2-1.33-3.31l-.72-1.63c-.26-.6-.53-1.22-.8-1.82-.35-.77-.71-1.55-1.07-2.31s-.74-1.52-1.13-2.28c-.26-.54-.53-1.08-.8-1.58s-.5-1-.74-1.45l-.9-1.68c-.31-.57-.55-1-.86-1.55l-.85-1.53L375,231.59c-.12-.18-.21-.34-.33-.49-.51-.9-1.07-1.76-1.61-2.62s-1.09-1.73-1.68-2.59-1.14-1.69-1.73-2.56c-.34-.47-.65-.94-1-1.42l-1-1.37c-.52-.71-1.06-1.46-1.6-2.16s-1.07-1.4-1.64-2.09-1.21-1.56-1.86-2.34c-.39-.47-.78-.93-1.19-1.4-1-1.19-2-2.38-3-3.54l-.89-1c-1.58-1.73-3.16-3.36-4.79-5l-1.73-1.7c-1.77-1.69-3.55-3.35-5.42-5l-1.76-1.52c-1.31-1.12-2.64-2.2-4-3.27-.57-.44-1.14-.88-1.66-1.3a1.27,1.27,0,0,0-.31-.2c-.26-.21-.52-.39-.8-.6s-.44-.33-.65-.51c-.71-.54-1.43-1-2.1-1.54-2.15-1.52-4.29-3-6.52-4.34-.29-.21-.6-.42-.89-.6-.51-.33-1-.62-1.52-.92-1.74-1.07-3.53-2.11-5.34-3.09-.65-.39-1.34-.73-2-1.07s-1.46-.8-2.23-1.16c-1.3-.68-2.64-1.34-4-2-3.32-1.59-6.74-3-10.23-4.36-.52-.21-1.06-.39-1.59-.6-4-1.45-8.15-2.79-12.37-3.88l-1.3-.36a.38.38,0,0,0-.15,0c-.42-.13-.85-.24-1.28-.33q-3.25-.81-6.6-1.49c-.56-.12-1.16-.2-1.75-.33a140.37,140.37,0,0,0-22.3-2.36H253c-1,0-2-.06-3-.06s-2.09,0-3.13.06a143.22,143.22,0,0,0-23.56,2.4c-.6.13-1.19.21-1.75.33q-3.33.67-6.6,1.49c-.43.09-.85.2-1.27.33h-.15l-1.3.36c-4.22,1.09-8.33,2.43-12.37,3.88-.53.21-1.07.39-1.59.6-3.49,1.33-6.91,2.77-10.23,4.36-1.37.62-2.71,1.28-4,2-.78.36-1.52.75-2.23,1.16s-1.34.68-2,1.07c-1.82,1-3.6,2-5.36,3.09-.5.3-1,.59-1.51.92-.3.18-.59.39-.9.6-2.21,1.37-4.35,2.82-6.5,4.34-.68.5-1.4,1-2.1,1.54-.21.18-.45.33-.65.51s-.54.39-.81.6a1.21,1.21,0,0,0-.3.2l-1.66,1.3c-1.37,1.07-2.71,2.15-4,3.27l-1.76,1.52c-1.87,1.61-3.65,3.27-5.44,5-.55.56-1.15,1.13-1.71,1.7-1.64,1.63-3.22,3.26-4.79,5l-.89,1c-1.05,1.16-2.05,2.35-3,3.54-.41.47-.8.93-1.19,1.4-.65.78-1.29,1.54-1.87,2.34s-1.1,1.4-1.63,2.09-1.08,1.45-1.6,2.16l-1,1.37-1,1.42c-.59.87-1.19,1.71-1.73,2.56s-1.15,1.73-1.69,2.59-1.1,1.72-1.6,2.62a5.25,5.25,0,0,0-.33.49l-1.25,2.15c-.29.54-.59,1-.86,1.53s-.57,1.06-.86,1.55l-.9,1.68c-.23.47-.49.94-.74,1.45s-.53,1-.79,1.58c-.39.76-.75,1.51-1.14,2.28s-.72,1.54-1.06,2.31c-.28.6-.54,1.22-.8,1.82l-.72,1.63c-.45,1.11-.89,2.2-1.33,3.31-.21.52-.43,1.06-.64,1.63-.29.77-.59,1.53-.86,2.31,0,.15-.12.28-.15.41-.26.78-.55,1.55-.8,2.33s-.55,1.69-.86,2.55-.52,1.73-.77,2.58c-.18.6-.38,1.22-.53,1.84s-.3,1.08-.44,1.64-.33,1.16-.49,1.73-.29,1.19-.44,1.75c-.26,1.19-.57,2.34-.8,3.53l-.39,1.79c-.12.59-.23,1.19-.33,1.78a1.55,1.55,0,0,0-.08.36c-.16.76-.31,1.54-.42,2.31s-.26,1.52-.36,2.26a5.63,5.63,0,0,1-.11.75c-.12.8-.28,1.63-.36,2.43s-.24,1.84-.33,2.77c-.09.57-.15,1.12-.21,1.71-.51,5-.76,10-.77,15,0,1,0,2.05.06,3.06s0,1.89.06,2.85a3.42,3.42,0,0,0,.06.77c0,.65.06,1.27.09,1.9a6.52,6.52,0,0,0,.06,1.08,18.28,18.28,0,0,0,.15,1.95,4.59,4.59,0,0,0,.06.9c.08.79.15,1.63.23,2.43v.17c.12.95.24,1.94.36,2.92s.24,2,.39,2.94.26,1.78.41,2.68l.36,2.14.09.53c.08.48.18,1,.3,1.45s.21,1.19.32,1.76c.15.77.33,1.55.51,2.28a2.7,2.7,0,0,0,.08.41l-47,16.31-1.09-4.17c-.18-.8-.36-1.61-.54-2.38l-.68-3.09A14.69,14.69,0,0,0,57.27,342,13.89,13.89,0,0,0,46,334.38l-33-2.79A14.24,14.24,0,0,1,0,317.5v-23a14.23,14.23,0,0,1,13-14.1l33-2.77A14,14,0,0,0,58.45,266.7l.68-3.1A194,194,0,0,1,85.07,201l1.69-2.67a14,14,0,0,0-1.07-16.55L64.3,156.47a14.24,14.24,0,0,1,.8-19.11l16.29-16.28a14,14,0,0,1,19.07-.81l25.35,21.4a13.89,13.89,0,0,0,16.55,1.1l2.64-1.7a193.89,193.89,0,0,1,62.63-26l3.09-.69a13.94,13.94,0,0,0,10.91-12.48l2.78-33a14.58,14.58,0,0,1,.9-3.85,14.25,14.25,0,0,1,13.19-9h23a14,14,0,0,1,13.21,9.08,14.55,14.55,0,0,1,.88,3.85l2.78,33a13.91,13.91,0,0,0,10.91,12.48l3.09.69a193.89,193.89,0,0,1,62.63,26l2.64,1.7a13.89,13.89,0,0,0,16.55-1.1l25.32-21.4a14.09,14.09,0,0,1,19.14.81l16.25,16.28a14.17,14.17,0,0,1,.8,19.11l-21.37,25.31a13.89,13.89,0,0,0-1.09,16.55l1.69,2.67a194,194,0,0,1,25.94,62.6l.68,3.1A14,14,0,0,0,454,277.63l33,2.77A14,14,0,0,1,500,294.47Z"/><path id="Excav" class="cls-1" d="M434.12,438.08l-9-2.38-9-8.91-4.81-8.21-.57-.94V401.82l-17.62-13.1-15.89,2.55-9.62,1.28h-.28L332.75,378l-13.42,17.5-2.27,9.12-2.58,1.76L314,389.47l3.57-9.25-22.25-15.48-21.44,8.36L264,369.39l-9.38-2.33-.24-9.09-6.21-2.61-1.94-5.94-2.14-.88s-11.32-1.94-12-1.82-6.52-6.13-9.48-9.25c-1-1-1.45-.68-1.45-.68l-1.21.26v.42h-.33l.33-.42v-2.49h10.49a5.53,5.53,0,0,0,5-5.53v-3.59c-.27-3.62-.42-7.22-.83-10.82a12.44,12.44,0,0,0-.16-1.58c-.76-6.11-1.89-12.15-6.32-16.92a2.11,2.11,0,0,1-.14-1.65c4.51-12.74,10.91-24.06,22.72-31.67,19.11-12.23,38-24.84,56.93-37.25,1.4-1,2.85-1.76,4.4-2.74,0,1.07.06,1.84,0,2.59-2,23.92-4.17,47.83-6,71.76-.27,3.61-1,6.09-4.67,7.39a5.17,5.17,0,0,1-3.88.3l-1.51-.58-1.33-.54,2-1.34,1.2-.83.57-.39,1.38-7.46-1.13-2.65-1.11-4.67-6.05-1.7-5.82,3.89-2.08,3.89-1.13,2.13.36,1,1.59,4.6-5.12-1.74a30.15,30.15,0,0,1-6.41-3.24l1.29-.58,1.87-.86,1.63-7.39.61-.72,4.83-5.77-4.58-3.77-3.61,2.11,1.39-1.23L275,273.7l-1.34-1.7-2.38-1.21-2.65,2,.42,4.36,3.6,2.36-.69.4-.46.68-.44.67-1.15,1.7v1.53l.9,2.58.17,5.16V294a24.09,24.09,0,0,1-5.1-5.56,10.73,10.73,0,0,0-.78-1l1.75-1.89.59-3.1-.3-3.28-2.79-1.56-3.09,1.57-2.2,2.4.17,1.28v.05a10.13,10.13,0,0,1-.72-1c-.88-1.48-1.48-3.16-2.4-4.61a1.87,1.87,0,0,0-1.82-.32c-.44.21-.59,1.07-.73,1.66a4,4,0,0,0,.18,1.37q3.39,18.43,6.77,36.84c1.24,6.81,5.43,10.9,11.86,12.66,6.83,1.9,13.31.26,19.13-3.36,6.24-3.92,12.26-8.19,18.27-12.42,2.85-2,3.51-4.73,2.29-8.08a3.71,3.71,0,0,1-.09-1.75c.33-3.16,1.4-5.83,4.37-7.59,1.87-1.12,3.45-2.78,5.26-4.06s2.13-2.52.65-4.16c-1.76-1.85-1.84-3.83-1.12-6.26,2.31-8,4.48-16,7.36-23.75,2.67-7.22,3.94-15,6-22.43a11.21,11.21,0,0,1,1.78-2.79l.56.26v-1.57c-.44-8.8-.91-17.6-1.39-26.33a2.27,2.27,0,0,0-.21-.88c-2.23-4.74-4.46-9.43-6.77-14.09a2.68,2.68,0,0,0-1.7-1.22c-.42-.05-1.07.78-1.33,1.33-1.19,2.51-2.2,5-3.44,7.53a5.67,5.67,0,0,1-2.09,2.23c-8.58,4.45-17.18,8.82-25.78,13.21a7.32,7.32,0,0,1-1.7.6c-1.13.2-2.41,0-3.35.51-10.2,5-20.39,10-30.56,15a3.05,3.05,0,0,1-2.28.44c-2.17-.95-3.72-.18-5.11,1.34-2.43,2.65-4.91,5.29-7.34,7.93-5.23,5.52-10.21,11.27-15.72,16.5-5,4.77-8.79,10.13-10.37,17-.56,2.38-1.21,4.75-1.78,7.13-1.07,4.34-2.17,8.7-3.21,12.92a5.4,5.4,0,0,1-.78.16H199.51c-7.17,0-8.08.93-8.08,8.08V312h-8.28a1.4,1.4,0,0,1-1.1-.57c-1.3-3.18-3.81-4.18-6.89-3.92-1.19-4.19-2-5.05-4.74-5-2,2.26,1.73,3,1.32,5H143.87c-2.38,0-3.16.73-3.27,3.08V312a12.38,12.38,0,0,0-1.5.06c-.5.06-.91.06-1.4.09-3.88.35-7.74,3.95-7.83,7.46v9.13a6.94,6.94,0,0,0,.91,3.42c.1.15.21.29.31.42l.76.77a7.8,7.8,0,0,0,.77.5,1.9,1.9,0,0,0,.6.31.4.4,0,0,0,.23.08,5.68,5.68,0,0,0,1,.27l6.42.09h7.5v2.88l-3.38-.65-.66.65a53.22,53.22,0,0,0-4,4.23c-.36.65-9.74-1-9.74-1l-4,4.55-9.22.48-.36,1-.18.13-7.09-4.74-.06-.08-1.76-3.24-.07-.14L99,331.2l-5.93-1.46-.62.39-.28.18-2.41,1.51L73.61,342l-13.94,8.76-2.83,1.78V444H443.16ZM297.57,308.48c-11-2.87-22.05-5.69-33-8.54a6,6,0,0,1-4.69-5.11c-.46-2.4-1-4.78-1.58-7.64,2.53,1.32,5,1.82,6.24,4.35.24.47.62.89.89,1.33a15,15,0,0,0,9,6.93c7.1,2.2,14,4.84,21,7.31.78.29,1.54.59,2.31.91A2.54,2.54,0,0,1,297.57,308.48Zm16.61-13.85c.83-3.63,1.52-6.54,2.31-10.05,1.34,2,2.45,3.51,3.67,5.26C318.25,291.36,316.49,292.76,314.18,294.63Zm12.06-86.5a3.62,3.62,0,0,1,3.68,3.54v0a3.85,3.85,0,0,1-3.75,3.8,3.55,3.55,0,0,1-3.55-3.55v-.13A3.78,3.78,0,0,1,326.24,208.13Zm1.93,27.7a17.43,17.43,0,0,1,1-2.09c.3.13.57.21.8.31-.07.63-.16,1.27-.29,1.89-1.7,7.28-4.19,14.5-5,21.91-.89,8.08-3.3,15.67-5.18,23.46-.11.42-.26.83-.41,1.25a6.57,6.57,0,0,0-.89.12,11.72,11.72,0,0,1-.36-3.54q5.09-21.69,10.33-43.31Zm-53.72-8.44c5.67-2.82,11.42-5.59,17.09-8.47.86-.44,1.4-1.42,2.08-2.1a4.65,4.65,0,0,1,.95-.93c8.16-4.19,16.34-8.36,24.78-12.69-.8,3.86-2.86,6-6.1,7.61-16.87,8.53-33.62,17.29-50.41,26l-3.13,1.65c-.41-1.08-.77-2-1.19-3.16,5.41-2.71,10.64-5.3,15.93-7.91Zm-65.16,71c3.81,0,7.22-.18,10.64.06a8.18,8.18,0,0,1,6.55,3.77c1.23,1.84,2.49,5.73,3.26,9.75a30.45,30.45,0,0,1,.68,9.42c-1.78-1.14-3.5-2.23-5.2-3.34-3.14-2-6.3-4.09-9.45-6.08-1.61-1-3.2-2.08-4.85-3.12a3.1,3.1,0,0,1-1.68-3.15c.12-2.34,0-4.7,0-7.27Z"/><g id="ceg."><path class="cls-2" d="M116.57,413.24h19.16c-1.16,16.19-15.36,21.06-32.66,21.06-6.86,0-13.25-.8-18.54-2.74-8.58-3.17-14.26-9.44-14.22-20.7v-3.47c0-6.16,1.66-10.85,4.63-14.33,5.73-6.78,16.25-9.06,28.13-9.09a57.85,57.85,0,0,1,16.66,2.11h0c9,2.72,15.25,8.42,16,18.91H116.57c-1.76-4.69-7.07-5.8-13.5-5.8-7.63.1-14.14,1.45-14,9.34v1.17c-.11,7.82,6.4,9.25,14,9.37C109.5,419.09,114.84,417.93,116.57,413.24Z"/><rect class="cls-2" x="272.67" y="419.12" width="18.72" height="14.02"/><polygon class="cls-2" points="160 397.49 160 403.61 197.47 403.61 197.47 414.72 160 414.72 160 420.88 197.47 420.88 197.47 433.17 141.32 433.17 141.32 385.22 197.47 385.22 197.47 397.49 160 397.49"/><path class="cls-2" d="M235.6,406.76h32.58V434.3h-9.35l-.93-7.49c-5.58,5.5-14,7.49-22.19,7.49-18-.08-32.83-5.29-32.74-23.44v-3.47C202.88,389.2,217.68,384,235.71,384c16.64,0,30.37,4.51,32.47,19.28H248.27a8.68,8.68,0,0,0-5.08-3.24,29.93,29.93,0,0,0-7.48-.86c-7.67.13-14.15,1.55-14.06,9.36v1.19c-.09,7.87,6.39,9.24,14.06,9.37,7.4,0,12.12-.46,14.94-4.09H235.6Z"/></g></g></svg>